<svg xmlns="http://www.w3.org/2000/svg" id="Layer_1" enable-background="new 0 0 105 105" viewBox="0 0 105 105"><rect width="105" height="105" fill="#f7f8ff"/><path fill="#fff" d="M69.8422699,26.7349854c0,11.789978-9.5500488,21.3400269-21.3500977,21.3400269
					c-11.3699951,0-20.66992-8.8900146-21.3100567-20.1000366c-0.0299072-0.4099731-0.039917-0.8200073-0.039917-1.2399902
					c0-4.3200073,1.2800293-8.3400269,3.4799805-11.7000122l-1.75-6.5499878
					c-0.1800537-0.6400146,0.4100342-1.2199707,1.0599365-1.0499878l6.4301739,1.7199707
					C39.8022308,6.7749634,43.9821625,5.375,48.4921722,5.375c10.9000244,0,19.8800049,8.1599731,21.1800537,18.7000122
					C69.7822113,24.9450073,69.8422699,25.8349609,69.8422699,26.7349854z"/><path fill="#e9f1fe" d="M69.8422699,26.7349854c0,11.789978-9.5500488,21.3400269-21.3500977,21.3400269
					c-11.3699951,0-20.66992-8.8900146-21.3100567-20.1000366c4.3901367-7.9500122,12.8701153-13.3399658,22.5700665-13.3399658
					c8.0100098,0,15.1899414,3.6799927,19.9200439,9.4400024C69.7822113,24.9450073,69.8422699,25.8349609,69.8422699,26.7349854z"/><path fill="#b5d8fe" d="M96.2317429,91.4872589v1.0480804c0,3.8510361-3.0737228,6.9954224-6.9129791,7.0778732
				C89.2598953,99.625,89.2010269,99.625,89.1421585,99.625H14.6538668c-3.9099083,0-7.0896602-3.1797485-7.0896602-7.0896606
				v-1.0480804c0-0.6595001,0.5299706-1.177681,1.1776805-1.177681h86.3121719
				C95.7018433,90.3095779,96.2317429,90.8277588,96.2317429,91.4872589z"/><path fill="#9bcafc" d="M8.5311556,96.093338c1.229866,2.1082077,3.5103741,3.5316086,6.1226997,3.5316086h74.4882813
				c0.0589142,0,0.1177673,0,0.1766281-0.0117111c2.5455475-0.0547256,4.7480927-1.4596252,5.9477997-3.5198975H8.5311556z"/><path fill="#b5d8fe" d="M92.6752014,38.0794067v52.2301712H11.1326132V38.0794067
				c0-1.9078369,1.5427589-3.4505959,3.4505949-3.4505959h74.6296082
				C91.1324387,34.6288109,92.6752014,36.1715698,92.6752014,38.0794067z"/><rect width="72.12" height="46.26" x="15.842" y="39.335" fill="#fff"/><path fill="#fff" d="M65.1645279,90.3095779v3.0619431c0,0.683075-0.5652618,1.2483368-1.2483368,1.2483368H39.8797607
			c-0.683075,0-1.2365494-0.5652618-1.2365494-1.2483368v-3.0619431H65.1645279z"/><path fill="#b5d8fe" d="M75.6821136,70.375c0.0400391,0.1599731,0.0600586,0.3200073,0.0600586,0.4799805
							c0,0.4899902-0.1899414,0.9700317-0.5500488,1.3200073c-0.4799805,0.4799805-1.1499023,0.6699829-1.7999268,0.4899902
							l-7.25-1.9500122c-4.2299805,2.8200073-9.1400146,4.3099976-14.2399902,4.3099976
							c-14.210083,0-25.7600079-11.5599976-25.7600079-25.7599487c0-3.3400269,0.6400146-6.5400391,1.8099365-9.4700317
							c-0.0699463-0.1500244-0.1298828-0.3099976-0.1799316-0.460022h47.8800049c1.289917,3.0599976,2,6.4100342,2,9.9300537
							c0,4.8799438-1.3699951,9.6099854-3.960083,13.7099609L75.6821136,70.375z"/><path fill="#b5d8fe" d="M74.7123718,66.3826675c0.1689453,0.6439514-0.4221725,1.2351303-1.066246,1.066246l-7.6853714-2.0691528
			c-3.9905014,2.7658768-8.8359032,4.3916626-14.0615921,4.3916626c-13.6711235,0-24.7557526-11.0846291-24.7557526-24.7556877
			s11.0846291-24.7556858,24.7557526-24.7556858s24.7557526,11.0846291,24.7557526,24.7556858
			c0,5.0039101-1.4886703,9.6594887-4.043335,13.5443802L74.7123718,66.3826675z"/><path fill="#b5d8fe" d="M74.7123718,66.3826675c0.1689453,0.6439514-0.4221725,1.2351303-1.066246,1.066246l-7.6853714-2.0691528
			c-3.9905014,2.7658768-8.8359032,4.3916626-14.0615921,4.3916626c-13.6711235,0-24.7557526-11.0846291-24.7557526-24.7556877
			s11.0846291-24.7556858,24.7557526-24.7556858s24.7557526,11.0846291,24.7557526,24.7556858
			c0,5.0039101-1.4886703,9.6594887-4.043335,13.5443802L74.7123718,66.3826675z"/><path fill="#fff" d="M64.3643875,43.4192924v15.5447655c0,1.1470528-0.9244308,2.0714836-2.0714302,2.0714836H41.5009117
				c-1.1469955,0-2.0714302-0.9244308-2.0714302-2.0714836V43.4192924c0-1.147049,0.9244347-2.0629654,2.0714302-2.0629654
				h20.7920456C63.4399567,41.3563271,64.3643875,42.2722435,64.3643875,43.4192924z"/><path fill="#b5d8fe" d="M54.9899139,49.8802299c0,1.441143-1.1721802,2.6133537-2.6184654,2.6133537
				c-1.4462242,0-2.6184044-1.1722107-2.6184044-2.6133537c0-1.4462547,1.1721802-2.6184654,2.6184044-2.6184654
				C53.8177338,47.2617645,54.9899139,48.4339752,54.9899139,49.8802299z"/><path fill="#077af1" d="M6.1474609 98.625H4.5332031c-.5527344 0-1 .4472656-1 1s.4472656 1 1 1h1.6142578c.5527344 0 1-.4472656 1-1S6.7001953 98.625 6.1474609 98.625zM100.4667969 98.625h-2.5791016c-.5527344 0-1 .4472656-1 1s.4472656 1 1 1h2.5791016c.5527344 0 1-.4472656 1-1S101.0195313 98.625 100.4667969 98.625zM97.2333984 93.6005859v-2.2949219c0-1.1025391-.8974609-2-2-2h-1.5634766V49.2363281c0-.5527344-.4472656-1-1-1s-1 .4472656-1 1v40.0693359H12.1289063v-18.046875c0-.5527344-.4472656-1-1-1s-1 .4472656-1 1v18.046875H8.5644531c-1.1025391 0-2 .8974609-2 2v2.2949219c0 2.3053589 1.1220703 4.3485107 2.8432617 5.6292114C9.3553467 99.3511963 9.3251953 99.484314 9.3251953 99.625c0 .5527344.4472656 1 1 1h83.6357422c.5527344 0 1-.4472656 1-1 0-.2479858-.0996094-.4673462-.2487793-.6419678C96.2514648 97.6941528 97.2333984 95.760498 97.2333984 93.6005859zM64.1640625 91.3095703v2.0615234c0 .1328125-.1162109.2490234-.2480469.2490234H39.8798828c-.1279297 0-.2363281-.1142578-.2363281-.2490234v-2.0615234H64.1640625zM8.5644531 93.6005859v-2.2949219c4.0542288 0 22.8110218 0 29.0791016 0v2.0654297c0 1.2402344 1.0029297 2.2490234 2.2363281 2.2490234h24.0361328c1.2392578 0 2.2480469-1.0087891 2.2480469-2.2490234v-2.0654297c3.9878082 0 21.2514725 0 29.0693359 0v2.2949219c0 2.7685547-2.2519531 5.0205078-5.0205078 5.0205078H13.5849609C10.8164063 98.6210938 8.5644531 96.3691406 8.5644531 93.6005859z"/><path fill="#077af1" d="M11.1289063,67.5478516c0.5527344,0,1-0.4472656,1-1V38.0771484
					c0-1.3525391,1.0996094-2.4521484,2.4511719-2.4521484h13.34375c-0.3466797,0.8816528-0.6479492,1.7852783-0.8967285,2.7109375
					H15.8388672c-0.5527344,0-1,0.4472656-1,1v46.2587891c0,0.5527344,0.4472656,1,1,1h72.1201172c0.5527344,0,1-0.4472656,1-1
					V39.3359375c0-0.5527344-0.4472656-1-1-1H76.7717285C76.5229492,37.4102783,76.2216797,36.5066528,75.875,35.625h13.3427734
					c1.3525391,0,2.4521484,1.0996094,2.4521484,2.4521484v5.4404297c0,0.5527344,0.4472656,1,1,1s1-0.4472656,1-1v-5.4404297
					c0-2.4550781-1.9970703-4.4521484-4.4521484-4.4521484H74.9914551
					c-1.1020508-2.2250977-2.5148926-4.2687988-4.1837158-6.0742188c0.0115967-0.2717896,0.0340576-0.5408325,0.0340576-0.8154297
					c0-0.9179688-0.0595703-1.8554688-0.1777344-2.7822266C69.2880859,12.7919922,59.7558594,4.375,48.4921875,4.375
					c-4.4091797,0-8.65625,1.2763672-12.3125,3.6962891l-5.9951172-1.6044922
					c-0.6494141-0.1699219-1.3476563,0.0195313-1.8154297,0.4970703c-0.46875,0.4775391-0.640625,1.1464844-0.4628906,1.7792969
					l1.6357422,6.1240234c-2.2255859,3.5527344-3.3994141,7.6455078-3.3994141,11.8681641
					c0,0.4443359,0.0107422,0.8779297,0.0410156,1.2958984c0.1113281,1.9483643,0.487793,3.8183594,1.0697021,5.59375H14.5800781
					c-2.4541016,0-4.4511719,1.9970703-4.4511719,4.4521484v28.4707031
					C10.1289063,67.1005859,10.5761719,67.5478516,11.1289063,67.5478516z M75.6552734,45.015625
					c0,4.6416016-1.3417969,9.1347656-3.8798828,12.9951172c-0.15625,0.2392578-0.2041016,0.5332031-0.1298828,0.8095703
					L73.6875,66.4248047l-7.4667969-2.0107422c-0.28125-0.0732422-0.5878906-0.0244141-0.8291016,0.1435547
					c-3.9775391,2.7568359-8.6425781,4.2138672-13.4921875,4.2138672c-13.0986328,0-23.7558594-10.6572266-23.7558594-23.7558594
					s10.6572266-23.7558594,23.7558594-23.7558594S75.6552734,31.9169922,75.6552734,45.015625z M86.9589844,40.3359375v44.2587891
					H16.8388672V40.3359375h9.7385254c-0.2800293,1.5187378-0.4338379,3.0811768-0.4338379,4.6796875
					c0,14.2021484,11.5537109,25.7558594,25.7558594,25.7558594c5.1025391,0,10.0166016-1.4873047,14.2441406-4.3066406
					l7.2490234,1.9511719c0.6474609,0.1728516,1.3222656-0.0107422,1.7978516-0.4882813
					c0.4765625-0.4765625,0.6591797-1.1484375,0.4882813-1.7988281c0-0.0019531-0.0009766-0.0039063-0.0009766-0.0058594
					l-1.9853516-7.3935547c2.59375-4.1005859,3.9628906-8.8330078,3.9628906-13.7138672
					c0-1.5985107-0.1538086-3.1609497-0.4338379-4.6796875H86.9589844z M31.4589844,15.5830078
					c0.1552734-0.2382813,0.2021484-0.53125,0.1289063-0.8056641l-1.6875-6.3154297l6.203125,1.6591797
					c0.2841797,0.0771484,0.5859375,0.0244141,0.828125-0.1435547C40.3378906,7.6210938,44.3349609,6.375,48.4921875,6.375
					c10.2558594,0,18.9345703,7.6621094,20.1875,17.8261719c0.0594482,0.4690552,0.097168,0.9384766,0.123291,1.406311
					c-4.5273438-3.9481812-10.4385986-6.3477173-16.9035645-6.3477173c-9.8518066,0-18.4250488,5.5621338-22.7554932,13.7088013
					c-0.5245361-1.6080322-0.8643799-3.3010864-0.96521-5.0652466c-0.0273438-0.3857422-0.0361328-0.7724609-0.0361328-1.1679688
					C28.1425781,22.7519531,29.2890625,18.8955078,31.4589844,15.5830078z"/><path fill="#077af1" d="M62.2929688,40.3564453h-1.0371094v-2.9980469c0-2.5019531-0.9736328-4.8535156-2.7392578-6.6191406
					c-1.7587891-1.7685547-4.1083984-2.7431641-6.6152344-2.7431641c-5.1630859,0-9.3632813,4.2001953-9.3632813,9.3623047
					v2.9980469h-1.0371094c-1.6933594,0-3.0712891,1.3740234-3.0712891,3.0625v15.5449219
					c0,1.6933594,1.3779297,3.0712891,3.0712891,3.0712891h20.7919922c1.6933594,0,3.0712891-1.3779297,3.0712891-3.0712891
					V43.4189453C65.3642578,41.7304688,63.9863281,40.3564453,62.2929688,40.3564453z M44.5380859,37.3583984
					c0-4.0595703,3.3027344-7.3623047,7.3632813-7.3623047c1.9707031,0,3.8164063,0.7646484,5.1992188,2.1552734
					c1.3896484,1.3896484,2.1552734,3.2392578,2.1552734,5.2070313v2.9980469H44.5380859V37.3583984z M63.3642578,58.9638672
					c0,0.5908203-0.4804688,1.0712891-1.0712891,1.0712891H41.5009766c-0.5908203,0-1.0712891-0.4804688-1.0712891-1.0712891
					V43.4189453c0-0.5957031,0.4707031-1.0625,1.0712891-1.0625h2.0371094h16.7177734h2.0371094
					c0.6005859,0,1.0712891,0.4667969,1.0712891,1.0625V58.9638672z"/><path fill="#077af1" d="M52.3710938,46.2617188c-1.9951172,0-3.6181641,1.6230469-3.6181641,3.6181641
					c0,1.6434937,1.1113281,3.0187988,2.6181641,3.4553223v2.6745605c0,0.5527344,0.4472656,1,1,1s1-0.4472656,1-1v-2.6745605
					c1.5070801-0.4365845,2.6191406-1.8118286,2.6191406-3.4553223
					C55.9902344,47.8847656,54.3662109,46.2617188,52.3710938,46.2617188z M52.3710938,51.4931641
					c-0.8925781,0-1.6181641-0.7236328-1.6181641-1.6132813c0-0.8925781,0.7255859-1.6181641,1.6181641-1.6181641
					s1.6191406,0.7255859,1.6191406,1.6181641C53.9902344,50.7695313,53.2636719,51.4931641,52.3710938,51.4931641z"/></svg>